<svg width="20" height="19" viewBox="0 0 20 19" fill="none" xmlns="http://www.w3.org/2000/svg">
<path d="M15.9387 11.2852C15.9403 11.54 15.8629 11.789 15.7171 11.9981C15.5713 12.2071 15.3643 12.3658 15.1247 12.4523L11.095 13.9414L9.6106 17.9742C9.52269 18.213 9.36366 18.4191 9.15494 18.5647C8.94623 18.7103 8.69788 18.7883 8.44341 18.7883C8.18894 18.7883 7.94059 18.7103 7.73188 18.5647C7.52316 18.4191 7.36413 18.213 7.27622 17.9742L5.78247 13.9414L1.74966 12.457C1.51086 12.3691 1.30476 12.2101 1.15918 12.0014C1.0136 11.7927 0.935547 11.5443 0.935547 11.2898C0.935547 11.0354 1.0136 10.787 1.15918 10.5783C1.30476 10.3696 1.51086 10.2106 1.74966 10.1227L5.78247 8.62891L7.26685 4.59609C7.35475 4.35729 7.51379 4.15119 7.7225 4.00561C7.93122 3.86004 8.17957 3.78198 8.43404 3.78198C8.68851 3.78198 8.93685 3.86004 9.14557 4.00561C9.35428 4.15119 9.51332 4.35729 9.60122 4.59609L11.095 8.62891L15.1278 10.1133C15.3676 10.2006 15.5745 10.3603 15.7197 10.5702C15.865 10.7801 15.9415 11.0299 15.9387 11.2852ZM11.5637 3.78516H12.8137V5.03516C12.8137 5.20092 12.8796 5.35989 12.9968 5.4771C13.114 5.59431 13.273 5.66016 13.4387 5.66016C13.6045 5.66016 13.7635 5.59431 13.8807 5.4771C13.9979 5.35989 14.0637 5.20092 14.0637 5.03516V3.78516H15.3137C15.4795 3.78516 15.6385 3.71931 15.7557 3.6021C15.8729 3.48489 15.9387 3.32592 15.9387 3.16016C15.9387 2.9944 15.8729 2.83542 15.7557 2.71821C15.6385 2.601 15.4795 2.53516 15.3137 2.53516H14.0637V1.28516C14.0637 1.1194 13.9979 0.960425 13.8807 0.843214C13.7635 0.726004 13.6045 0.660156 13.4387 0.660156C13.273 0.660156 13.114 0.726004 12.9968 0.843214C12.8796 0.960425 12.8137 1.1194 12.8137 1.28516V2.53516H11.5637C11.398 2.53516 11.239 2.601 11.1218 2.71821C11.0046 2.83542 10.9387 2.9944 10.9387 3.16016C10.9387 3.32592 11.0046 3.48489 11.1218 3.6021C11.239 3.71931 11.398 3.78516 11.5637 3.78516ZM18.4387 6.28516H17.8137V5.66016C17.8137 5.4944 17.7479 5.33542 17.6307 5.21821C17.5135 5.101 17.3545 5.03516 17.1887 5.03516C17.023 5.03516 16.864 5.101 16.7468 5.21821C16.6296 5.33542 16.5637 5.4944 16.5637 5.66016V6.28516H15.9387C15.773 6.28516 15.614 6.351 15.4968 6.46821C15.3796 6.58542 15.3137 6.7444 15.3137 6.91016C15.3137 7.07592 15.3796 7.23489 15.4968 7.3521C15.614 7.46931 15.773 7.53516 15.9387 7.53516H16.5637V8.16016C16.5637 8.32592 16.6296 8.48489 16.7468 8.6021C16.864 8.71931 17.023 8.78516 17.1887 8.78516C17.3545 8.78516 17.5135 8.71931 17.6307 8.6021C17.7479 8.48489 17.8137 8.32592 17.8137 8.16016V7.53516H18.4387C18.6045 7.53516 18.7635 7.46931 18.8807 7.3521C18.9979 7.23489 19.0637 7.07592 19.0637 6.91016C19.0637 6.7444 18.9979 6.58542 18.8807 6.46821C18.7635 6.351 18.6045 6.28516 18.4387 6.28516Z" fill="#1B1C25"/>
</svg>
