<svg width="39" height="19" viewBox="0 0 39 19" fill="none" xmlns="http://www.w3.org/2000/svg">
<rect width="39" height="19" rx="9.5" fill="#8D9194"/>
<g clip-path="url(#clip0_255_30346)">
<path d="M28.75 9.75C28.7509 9.9029 28.7044 10.0523 28.617 10.1777C28.5295 10.3032 28.4053 10.3984 28.2615 10.4503L25.8437 11.3438L24.9531 13.7634C24.9003 13.9067 24.8049 14.0304 24.6797 14.1177C24.5545 14.2051 24.4054 14.2519 24.2528 14.2519C24.1001 14.2519 23.9511 14.2051 23.8258 14.1177C23.7006 14.0304 23.6052 13.9067 23.5525 13.7634L22.6562 11.3438L20.2365 10.4531C20.0932 10.4004 19.9696 10.305 19.8822 10.1797C19.7949 10.0545 19.748 9.90549 19.748 9.75281C19.748 9.60013 19.7949 9.45112 19.8822 9.32589C19.9696 9.20066 20.0932 9.10524 20.2365 9.0525L22.6562 8.15625L23.5468 5.73656C23.5996 5.59328 23.695 5.46962 23.8202 5.38227C23.9455 5.29493 24.0945 5.24809 24.2471 5.24809C24.3998 5.24809 24.5488 5.29493 24.6741 5.38227C24.7993 5.46962 24.8947 5.59328 24.9475 5.73656L25.8437 8.15625L28.2634 9.04688C28.4073 9.09928 28.5314 9.19506 28.6186 9.32101C28.7057 9.44695 28.7516 9.59685 28.75 9.75ZM26.125 5.25H26.875V6C26.875 6.09946 26.9145 6.19484 26.9848 6.26516C27.0551 6.33549 27.1505 6.375 27.25 6.375C27.3494 6.375 27.4448 6.33549 27.5151 6.26516C27.5854 6.19484 27.625 6.09946 27.625 6V5.25H28.375C28.4744 5.25 28.5698 5.21049 28.6401 5.14016C28.7104 5.06984 28.75 4.97446 28.75 4.875C28.75 4.77554 28.7104 4.68016 28.6401 4.60984C28.5698 4.53951 28.4744 4.5 28.375 4.5H27.625V3.75C27.625 3.65054 27.5854 3.55516 27.5151 3.48483C27.4448 3.41451 27.3494 3.375 27.25 3.375C27.1505 3.375 27.0551 3.41451 26.9848 3.48483C26.9145 3.55516 26.875 3.65054 26.875 3.75V4.5H26.125C26.0255 4.5 25.9301 4.53951 25.8598 4.60984C25.7895 4.68016 25.75 4.77554 25.75 4.875C25.75 4.97446 25.7895 5.06984 25.8598 5.14016C25.9301 5.21049 26.0255 5.25 26.125 5.25ZM30.25 6.75H29.875V6.375C29.875 6.27554 29.8354 6.18016 29.7651 6.10984C29.6948 6.03951 29.5994 6 29.5 6C29.4005 6 29.3051 6.03951 29.2348 6.10984C29.1645 6.18016 29.125 6.27554 29.125 6.375V6.75H28.75C28.6505 6.75 28.5551 6.78951 28.4848 6.85984C28.4145 6.93016 28.375 7.02554 28.375 7.125C28.375 7.22446 28.4145 7.31984 28.4848 7.39016C28.5551 7.46049 28.6505 7.5 28.75 7.5H29.125V7.875C29.125 7.97446 29.1645 8.06984 29.2348 8.14016C29.3051 8.21049 29.4005 8.25 29.5 8.25C29.5994 8.25 29.6948 8.21049 29.7651 8.14016C29.8354 8.06984 29.875 7.97446 29.875 7.875V7.5H30.25C30.3494 7.5 30.4448 7.46049 30.5151 7.39016C30.5854 7.31984 30.625 7.22446 30.625 7.125C30.625 7.02554 30.5854 6.93016 30.5151 6.85984C30.4448 6.78951 30.3494 6.75 30.25 6.75Z" fill="#1B1C25"/>
</g>
<path d="M8.00426 14V3.81818H11.902C12.6378 3.81818 13.2493 3.93419 13.7365 4.16619C14.227 4.39489 14.5933 4.7081 14.8352 5.10582C15.0805 5.50355 15.2031 5.95431 15.2031 6.4581C15.2031 6.8724 15.1236 7.22704 14.9645 7.52202C14.8054 7.81368 14.5916 8.05066 14.3232 8.23295C14.0547 8.41525 13.7547 8.54616 13.4233 8.62571V8.72514C13.7846 8.74503 14.1309 8.85606 14.4624 9.05824C14.7971 9.2571 15.0705 9.53883 15.2827 9.90341C15.4948 10.268 15.6009 10.7088 15.6009 11.2259C15.6009 11.7528 15.4732 12.2268 15.218 12.6477C14.9628 13.0653 14.5784 13.3951 14.0646 13.6371C13.5509 13.879 12.9046 14 12.1257 14H8.00426ZM9.84872 12.4588H11.8324C12.5019 12.4588 12.9841 12.3312 13.2791 12.076C13.5774 11.8175 13.7266 11.486 13.7266 11.0817C13.7266 10.7801 13.652 10.5083 13.5028 10.2663C13.3537 10.0211 13.1416 9.82884 12.8665 9.68963C12.5914 9.54711 12.2633 9.47585 11.8821 9.47585H9.84872V12.4588ZM9.84872 8.14844H11.6733C11.9915 8.14844 12.2782 8.09044 12.5334 7.97443C12.7886 7.85511 12.9891 7.68774 13.1349 7.4723C13.2841 7.25355 13.3587 6.99503 13.3587 6.69673C13.3587 6.30232 13.2195 5.97751 12.9411 5.7223C12.666 5.46709 12.2566 5.33949 11.7131 5.33949H9.84872V8.14844Z" fill="#1B1C25"/>
<defs>
<clipPath id="clip0_255_30346">
<rect width="12" height="12" fill="white" transform="translate(19 3)"/>
</clipPath>
</defs>
</svg>
