<svg width="32" height="32" viewBox="0 0 32 32" fill="none" xmlns="http://www.w3.org/2000/svg">
<path d="M26.0002 18C26.0027 18.4077 25.8789 18.8062 25.6456 19.1407C25.4124 19.4751 25.0812 19.729 24.6977 19.8675L18.2502 22.25L15.8752 28.7025C15.7346 29.0846 15.4801 29.4143 15.1461 29.6473C14.8122 29.8802 14.4149 30.0051 14.0077 30.0051C13.6005 30.0051 13.2032 29.8802 12.8692 29.6473C12.5353 29.4143 12.2808 29.0846 12.1402 28.7025L9.7502 22.25L3.2977 19.875C2.91561 19.7344 2.58586 19.4799 2.35293 19.146C2.12001 18.812 1.99512 18.4147 1.99512 18.0075C1.99512 17.6003 2.12001 17.203 2.35293 16.869C2.58586 16.5351 2.91561 16.2806 3.2977 16.14L9.7502 13.75L12.1252 7.2975C12.2658 6.91541 12.5203 6.58566 12.8542 6.35273C13.1882 6.11981 13.5855 5.99492 13.9927 5.99492C14.3999 5.99492 14.7972 6.11981 15.1311 6.35273C15.4651 6.58566 15.7196 6.91541 15.8602 7.2975L18.2502 13.75L24.7027 16.125C25.0865 16.2647 25.4174 16.5202 25.6498 16.856C25.8822 17.1919 26.0047 17.5916 26.0002 18ZM19.0002 6H21.0002V8C21.0002 8.26522 21.1056 8.51957 21.2931 8.70711C21.4806 8.89464 21.735 9 22.0002 9C22.2654 9 22.5198 8.89464 22.7073 8.70711C22.8948 8.51957 23.0002 8.26522 23.0002 8V6H25.0002C25.2654 6 25.5198 5.89464 25.7073 5.70711C25.8948 5.51957 26.0002 5.26522 26.0002 5C26.0002 4.73478 25.8948 4.48043 25.7073 4.29289C25.5198 4.10536 25.2654 4 25.0002 4H23.0002V2C23.0002 1.73478 22.8948 1.48043 22.7073 1.29289C22.5198 1.10536 22.2654 1 22.0002 1C21.735 1 21.4806 1.10536 21.2931 1.29289C21.1056 1.48043 21.0002 1.73478 21.0002 2V4H19.0002C18.735 4 18.4806 4.10536 18.2931 4.29289C18.1056 4.48043 18.0002 4.73478 18.0002 5C18.0002 5.26522 18.1056 5.51957 18.2931 5.70711C18.4806 5.89464 18.735 6 19.0002 6ZM30.0002 10H29.0002V9C29.0002 8.73478 28.8948 8.48043 28.7073 8.29289C28.5198 8.10536 28.2654 8 28.0002 8C27.735 8 27.4806 8.10536 27.2931 8.29289C27.1056 8.48043 27.0002 8.73478 27.0002 9V10H26.0002C25.735 10 25.4806 10.1054 25.2931 10.2929C25.1056 10.4804 25.0002 10.7348 25.0002 11C25.0002 11.2652 25.1056 11.5196 25.2931 11.7071C25.4806 11.8946 25.735 12 26.0002 12H27.0002V13C27.0002 13.2652 27.1056 13.5196 27.2931 13.7071C27.4806 13.8946 27.735 14 28.0002 14C28.2654 14 28.5198 13.8946 28.7073 13.7071C28.8948 13.5196 29.0002 13.2652 29.0002 13V12H30.0002C30.2654 12 30.5198 11.8946 30.7073 11.7071C30.8948 11.5196 31.0002 11.2652 31.0002 11C31.0002 10.7348 30.8948 10.4804 30.7073 10.2929C30.5198 10.1054 30.2654 10 30.0002 10Z" fill="white"/>
</svg>
