<svg width="32" height="32" viewBox="0 0 32 32" fill="none" xmlns="http://www.w3.org/2000/svg">
<path d="M8.6397 11.7688L3.5622 16L8.6397 20.2313C8.74351 20.3144 8.8297 20.4173 8.89323 20.5342C8.95676 20.651 8.99636 20.7793 9.0097 20.9116C9.02305 21.0439 9.00988 21.1775 8.97096 21.3047C8.93203 21.4318 8.86814 21.5499 8.78303 21.6521C8.69791 21.7542 8.59327 21.8384 8.47524 21.8996C8.3572 21.9609 8.22814 21.9979 8.09561 22.0087C7.96307 22.0194 7.82972 22.0036 7.70336 21.9622C7.577 21.9208 7.46017 21.8546 7.3597 21.7675L1.3597 16.7675C1.24712 16.6737 1.15654 16.5562 1.09438 16.4235C1.03222 16.2908 1 16.146 1 15.9994C1 15.8528 1.03222 15.7081 1.09438 15.5753C1.15654 15.4426 1.24712 15.3251 1.3597 15.2313L7.3597 10.2313C7.56359 10.0615 7.82655 9.97975 8.09074 10.0039C8.35493 10.028 8.59871 10.1561 8.76845 10.36C8.93819 10.5639 9.01998 10.8269 8.99584 11.0911C8.97169 11.3553 8.84359 11.599 8.6397 11.7688ZM30.6397 15.2313L24.6397 10.2313C24.5387 10.1472 24.4222 10.0839 24.2968 10.0449C24.1714 10.0059 24.0395 9.99194 23.9087 10.0039C23.7778 10.0159 23.6507 10.0535 23.5344 10.1146C23.4181 10.1757 23.315 10.2591 23.231 10.36C23.0612 10.5639 22.9794 10.8269 23.0036 11.0911C23.0277 11.3553 23.1558 11.599 23.3597 11.7688L28.4372 16L23.3597 20.2313C23.2559 20.3144 23.1697 20.4173 23.1062 20.5342C23.0426 20.651 23.003 20.7793 22.9897 20.9116C22.9764 21.0439 22.9895 21.1775 23.0284 21.3047C23.0674 21.4318 23.1313 21.5499 23.2164 21.6521C23.3015 21.7542 23.4061 21.8384 23.5242 21.8996C23.6422 21.9609 23.7713 21.9979 23.9038 22.0087C24.0363 22.0194 24.1697 22.0036 24.296 21.9622C24.4224 21.9208 24.5392 21.8546 24.6397 21.7675L30.6397 16.7675C30.7523 16.6737 30.8429 16.5562 30.905 16.4235C30.9672 16.2908 30.9994 16.146 30.9994 15.9994C30.9994 15.8528 30.9672 15.7081 30.905 15.5753C30.8429 15.4426 30.7523 15.3251 30.6397 15.2313ZM20.341 4.06003C20.2175 4.01522 20.0864 3.99515 19.9552 4.00099C19.8241 4.00682 19.6953 4.03844 19.5763 4.09404C19.4573 4.14964 19.3505 4.22813 19.2618 4.32503C19.1732 4.42193 19.1045 4.53534 19.0597 4.65878L11.0597 26.6588C11.0147 26.7823 10.9945 26.9135 11.0002 27.0448C11.006 27.1761 11.0375 27.3051 11.0931 27.4242C11.1488 27.5433 11.2273 27.6503 11.3243 27.739C11.4213 27.8277 11.5349 27.8965 11.6584 27.9413C11.768 27.9802 11.8834 28.0001 11.9997 28C12.2051 28 12.4054 27.9368 12.5736 27.819C12.7418 27.7011 12.8696 27.5343 12.9397 27.3413L20.9397 5.34128C20.9845 5.21784 21.0046 5.08678 20.9987 4.95558C20.9929 4.82439 20.9613 4.69562 20.9057 4.57665C20.8501 4.45767 20.7716 4.35081 20.6747 4.26217C20.5778 4.17353 20.4644 4.10484 20.341 4.06003Z" fill="white"/>
</svg>
