<svg width="32" height="32" viewBox="0 0 32 32" xmlns="http://www.w3.org/2000/svg">
<path d="M26 16V14C25.9933 11.5201 25.2213 9.10262 23.7895 7.07774C22.3577 5.05287 20.3359 3.51924 18 2.68625V2C18 1.46957 17.7893 0.960859 17.4142 0.585786C17.0391 0.210714 16.5304 0 16 0H12C11.4696 0 10.9609 0.210714 10.5858 0.585786C10.2107 0.960859 10 1.46957 10 2V2.68625C7.66413 3.51924 5.64227 5.05287 4.21047 7.07774C2.77867 9.10262 2.00672 11.5201 2 14V16C1.46957 16 0.960859 16.2107 0.585786 16.5858C0.210714 16.9609 0 17.4696 0 18V21C0 21.5304 0.210714 22.0391 0.585786 22.4142C0.960859 22.7893 1.46957 23 2 23H26C26.5304 23 27.0391 22.7893 27.4142 22.4142C27.7893 22.0391 28 21.5304 28 21V18C28 17.4696 27.7893 16.9609 27.4142 16.5858C27.0391 16.2107 26.5304 16 26 16ZM24 14V16H18V4.83375C19.7801 5.61685 21.2945 6.89981 22.3596 8.52692C23.4247 10.154 23.9945 12.0553 24 14ZM16 2V16H12V2H16ZM4 14C4.00549 12.0553 4.57534 10.154 5.64041 8.52692C6.70547 6.89981 8.21994 5.61685 10 4.83375V16H4V14ZM26 21H2V18H26V21Z" fill="white"/>
</svg>
