<svg width="40" height="40" viewBox="0 0 40 40" fill="none" xmlns="http://www.w3.org/2000/svg">
<path d="M26.75 11.75C26.5511 11.75 26.3603 11.829 26.2197 11.9697C26.079 12.1103 26 12.3011 26 12.5C26 12.6989 26.079 12.8897 26.2197 13.0303C26.3603 13.171 26.5511 13.25 26.75 13.25C27.1478 13.25 27.5294 13.408 27.8107 13.6893C28.092 13.9706 28.25 14.3522 28.25 14.75V20.195C27.7212 19.7589 27.0922 19.4615 26.4196 19.3295C25.747 19.1976 25.0522 19.2353 24.3979 19.4393C23.7436 19.6432 23.1504 20.007 22.6719 20.4977C22.1934 20.9885 21.8448 21.5907 21.6575 22.25H18.3425C18.1552 21.5907 17.8066 20.9885 17.3281 20.4977C16.8496 20.007 16.2564 19.6432 15.6021 19.4393C14.9478 19.2353 14.253 19.1976 13.5804 19.3295C12.9078 19.4615 12.2788 19.7589 11.75 20.195V14.75C11.75 14.3522 11.908 13.9706 12.1893 13.6893C12.4706 13.408 12.8522 13.25 13.25 13.25C13.4489 13.25 13.6397 13.171 13.7803 13.0303C13.921 12.8897 14 12.6989 14 12.5C14 12.3011 13.921 12.1103 13.7803 11.9697C13.6397 11.829 13.4489 11.75 13.25 11.75C12.4544 11.75 11.6913 12.0661 11.1287 12.6287C10.5661 13.1913 10.25 13.9544 10.25 14.75V23.375C10.252 24.4352 10.6621 25.4538 11.3953 26.2197C12.1284 26.9855 13.1282 27.4396 14.1873 27.4879C15.2463 27.5361 16.2833 27.1748 17.083 26.4788C17.8828 25.7828 18.3838 24.8056 18.4822 23.75H21.5178C21.6162 24.8056 22.1172 25.7828 22.917 26.4788C23.7167 27.1748 24.7537 27.5361 25.8127 27.4879C26.8718 27.4396 27.8716 26.9855 28.6047 26.2197C29.3379 25.4538 29.748 24.4352 29.75 23.375V14.75C29.75 13.9544 29.4339 13.1913 28.8713 12.6287C28.3087 12.0661 27.5456 11.75 26.75 11.75ZM14.375 26C13.8558 26 13.3483 25.846 12.9166 25.5576C12.4849 25.2692 12.1485 24.8592 11.9498 24.3795C11.7511 23.8999 11.6992 23.3721 11.8004 22.8629C11.9017 22.3537 12.1517 21.886 12.5188 21.5188C12.886 21.1517 13.3537 20.9017 13.8629 20.8004C14.3721 20.6992 14.8999 20.7511 15.3795 20.9498C15.8592 21.1485 16.2692 21.4849 16.5576 21.9166C16.846 22.3483 17 22.8558 17 23.375C17 24.0712 16.7234 24.7389 16.2312 25.2312C15.7389 25.7234 15.0712 26 14.375 26ZM25.625 26C25.1058 26 24.5983 25.846 24.1666 25.5576C23.7349 25.2692 23.3985 24.8592 23.1998 24.3795C23.0011 23.8999 22.9492 23.3721 23.0504 22.8629C23.1517 22.3537 23.4017 21.886 23.7688 21.5188C24.136 21.1517 24.6037 20.9017 25.1129 20.8004C25.6221 20.6992 26.1499 20.7511 26.6295 20.9498C27.1092 21.1485 27.5192 21.4849 27.8076 21.9166C28.096 22.3483 28.25 22.8558 28.25 23.375C28.25 24.0712 27.9734 24.7389 27.4812 25.2312C26.9889 25.7234 26.3212 26 25.625 26Z" fill="#1B1C25"/>
</svg>
