<svg width="127" height="127" viewBox="0 0 127 127" fill="none" xmlns="http://www.w3.org/2000/svg">
<rect width="127" height="127" rx="63.5" fill="#A1AEF2"/>
<path d="M23.386 61.8644C23.1179 67.1908 23.4447 72.1363 24.0749 76.4937C25.7168 87.8476 34.5903 95.8761 46.0026 97.0448C50.9355 97.5499 56.965 97.8871 64.1821 97.8871C71.6158 97.8871 77.7787 97.5294 82.776 96.9988C93.8396 95.8242 102.025 87.9048 103.329 76.8557C103.828 72.6265 104.157 67.6288 104.157 61.8644C104.157 43.8942 99.1293 37.9912 97.5322 36.4389C95.3874 34.567 87.1812 29.129 64.1821 29.129C55.6397 29.129 48.8725 29.6455 43.6282 30.3907C33.464 31.835 26.2968 39.489 24.6508 49.6224C24.0806 53.1324 23.6199 57.2175 23.386 61.8644Z" fill="#1B1C25"/>
<path d="M43.7947 61.8644C43.6633 67.1907 43.8235 72.1363 44.1324 76.4936C44.9372 87.8475 49.2866 95.876 54.8805 97.0447C57.2985 97.5498 60.2539 97.887 63.7914 97.887C67.4352 97.887 70.456 97.5293 72.9055 96.9987C78.3284 95.8241 82.3404 87.9047 82.9797 76.8556C83.2244 72.6264 83.3855 67.6288 83.3855 61.8644C83.3855 43.8942 80.9213 37.9911 80.1384 36.4388C79.0871 34.5669 75.0647 29.129 63.7914 29.129C59.6043 29.129 56.2873 29.6455 53.7167 30.3907C48.7346 31.835 45.2215 39.4889 44.4147 49.6224C44.1352 53.1324 43.9094 57.2175 43.7947 61.8644Z" fill="#050615"/>
<path d="M54 77.4999L50.5 72.9999C51.5279 73.2029 56.8255 78.3942 64.4095 78.3942C71.9934 78.3942 77.2766 73.2029 78 72.9999L75 77.4999C74.1624 77.3645 70.8969 79.2064 64.4095 79.2064C57.922 79.2064 55.066 77.3645 54 77.4999Z" fill="#B2FBFF"/>
<path d="M44.4217 53.3429L48.4772 55.6843V60.3672L44.4217 62.7086L40.3662 60.3672V55.6843L44.4217 53.3429Z" fill="#B2FBFF"/>
<path d="M83.4832 53.3429L87.5387 55.6843V60.3672L83.4832 62.7086L79.4277 60.3672V55.6843L83.4832 53.3429Z" fill="#B2FBFF"/>
<path fill-rule="evenodd" clip-rule="evenodd" d="M34.7779 39.6704C33.5363 41.9212 30.8933 49.5362 30.2581 62.149C29.6245 74.7317 32.989 84.7505 34.7691 88.2392C35.9353 88.849 38.7552 89.7672 43.4899 90.5374C48.3025 91.3204 55.0764 91.9479 64.0663 91.9479C73.0563 91.9479 79.8111 91.3204 84.5998 90.5375C89.3125 89.767 92.1039 88.8486 93.2499 88.2394C94.5685 85.6932 97.189 76.9844 97.189 62.1375C97.189 54.6576 96.5238 49.3454 95.6957 45.7473C95.2817 43.9483 94.8275 42.5805 94.397 41.5859C93.9662 40.5907 93.566 39.9852 93.2651 39.6909C92.8464 39.3274 92.0181 38.8528 90.6951 38.3458C89.3724 37.839 87.5703 37.3055 85.2214 36.8196C80.5238 35.8479 73.6488 35.0683 64.0663 35.0683C54.4839 35.0683 47.5897 35.8479 42.8682 36.8197C40.5074 37.3056 38.692 37.8391 37.3566 38.3461C36.0478 38.8429 35.2141 39.3091 34.7779 39.6704ZM42.7761 36.3722C47.5345 35.3928 54.4605 34.6115 64.0663 34.6115C73.6722 34.6115 80.5792 35.3928 85.314 36.3723C87.6813 36.862 89.5079 37.4017 90.8586 37.9192C92.2041 38.4348 93.0926 38.9341 93.57 39.3506L93.5746 39.3546L93.579 39.3589C93.9439 39.7133 94.3747 40.3841 94.8163 41.4044C95.2602 42.43 95.7222 43.8252 96.141 45.6449C96.9785 49.2843 97.6459 54.6322 97.6459 62.1375C97.6459 77.1405 94.979 85.9548 93.6217 88.5142L93.5897 88.5745L93.53 88.6074C92.3523 89.2551 89.4821 90.2022 84.6735 90.9883C79.8567 91.7759 73.0768 92.4048 64.0663 92.4048C55.0558 92.4048 48.257 91.7759 43.4165 90.9884C38.584 90.2022 35.686 89.2552 34.4899 88.6081L34.428 88.5746L34.3957 88.512C32.5882 85.0124 29.1601 74.8681 29.8018 62.126C30.4424 49.4057 33.1195 41.6994 34.3992 39.4112L34.4192 39.3756L34.4503 39.349C34.9368 38.9334 35.8365 38.4345 37.1945 37.919C38.5574 37.4015 40.397 36.8619 42.7761 36.3722Z" fill="white"/>
<path d="M82.5938 11.0293L82.2733 12.0554L80.157 11.3944L78.4229 16.9463L77.2502 16.5801L78.9843 11.0281L76.868 10.3671L77.1885 9.341L82.5938 11.0293Z" fill="white"/>
<path d="M87.8486 18.0705L86.8743 17.5318L85.5832 19.8669L84.5081 19.2725L87.8425 13.2414L90.2532 14.5743C91.6392 15.3405 92.0656 16.4537 91.4155 17.6297C90.9 18.562 90.0607 18.9096 89.0375 18.6181L89.2539 21.8964L88.0276 21.2183L87.8486 18.0705ZM88.4068 14.7598L87.3851 16.6078L88.6619 17.3137C89.4263 17.7363 90.0274 17.6409 90.3571 17.0445C90.6915 16.4397 90.4563 15.893 89.6836 15.4657L88.4068 14.7598Z" fill="white"/>
<path d="M98.1307 19.7789L97.5632 23.1605L100.829 22.1168L101.816 22.9715L97.285 24.4052L95.4247 26.5525L94.4961 25.7481L96.3564 23.6007L97.1223 18.9054L98.1307 19.7789Z" fill="white"/>
<path d="M105.323 38.5106L103.851 36.0022L109.795 32.5148L111.179 34.8741C111.922 36.1407 111.779 37.1483 110.761 37.7458C110.14 38.1101 109.505 38.0709 108.982 37.6543C109.159 38.4297 108.844 39.1262 108.149 39.5342C107.122 40.1365 106.046 39.744 105.323 38.5106ZM109.498 34.0576L107.934 34.9756L108.662 36.2173C109.065 36.9044 109.544 37.1133 110.066 36.8072C110.57 36.511 110.635 35.9947 110.227 35.2993L109.498 34.0576ZM107.88 36.9323L107.04 35.5002L105.343 36.4959L106.183 37.928C106.557 38.5655 107.113 38.7734 107.643 38.4625C108.164 38.1565 108.254 37.5697 107.88 36.9323Z" fill="white"/>
<path d="M114.947 42.5427L115.381 43.6921L108.934 46.1258L108.5 44.9764L114.947 42.5427Z" fill="white"/>
<path d="M111.396 55.3116L110.489 50.9319L117.237 49.5337L117.486 50.7367L111.79 51.9168L112.449 55.0935L111.396 55.3116Z" fill="white"/>
<path d="M111.984 64.1113L111.887 59.6396L118.777 59.491L118.804 60.7192L112.989 60.8447L113.058 64.0881L111.984 64.1113Z" fill="white"/>
<path d="M118.384 70.3161L115.191 71.567L117.765 73.8326L117.539 75.1182L113.981 71.9678L111.183 71.4754L111.396 70.2654L114.194 70.7579L118.615 69.0022L118.384 70.3161Z" fill="white"/>
<path d="M98.2832 105.955L97.5709 105.15L99.2313 103.681L95.3768 99.3249L96.2969 98.5108L100.151 102.867L101.812 101.397L102.524 102.202L98.2832 105.955Z" fill="white"/>
<path d="M89.5392 106.81L90.5043 106.255L89.1736 103.942L90.2385 103.329L93.6752 109.303L91.2876 110.676C89.9148 111.466 88.7416 111.255 88.0715 110.09C87.5402 109.167 87.6768 108.269 88.4557 107.544L85.5381 106.034L86.7527 105.335L89.5392 106.81ZM92.0838 109L91.0308 107.17L89.7663 107.897C89.0092 108.333 88.7799 108.897 89.1197 109.487C89.4644 110.086 90.0539 110.168 90.8193 109.728L92.0838 109Z" fill="white"/>
<path d="M82.7583 114.726L80.1578 112.491L79.3615 115.826L78.1197 116.229L79.2365 111.609L78.361 108.906L79.5298 108.528L80.4053 111.231L84.0275 114.315L82.7583 114.726Z" fill="white"/>
<path d="M63.0071 111.192L65.915 111.23L65.8251 118.121L63.0899 118.085C61.6215 118.066 60.8332 117.422 60.8486 116.242C60.858 115.522 61.22 114.999 61.8469 114.767C61.0919 114.517 60.6585 113.887 60.6691 113.081C60.6846 111.891 61.5771 111.173 63.0071 111.192ZM64.6582 117.069L64.6818 115.255L63.2422 115.236C62.4457 115.226 62.0194 115.527 62.0115 116.132C62.0038 116.717 62.4124 117.04 63.2186 117.05L64.6582 117.069ZM63.035 114.197L64.6954 114.218L64.7211 112.251L63.0607 112.229C62.3217 112.22 61.8562 112.588 61.8482 113.202C61.8403 113.807 62.296 114.187 63.035 114.197Z" fill="white"/>
<path d="M54.5778 117.342L53.3697 117.119L54.622 110.343L55.8301 110.566L54.5778 117.342Z" fill="white"/>
<path d="M45.4871 107.699L49.7047 109.187L47.4107 115.686L46.2522 115.277L48.1884 109.792L45.1292 108.712L45.4871 107.699Z" fill="white"/>
<path d="M37.6521 103.649L41.5289 105.88L38.0922 111.853L37.0274 111.241L39.928 106.199L37.116 104.581L37.6521 103.649Z" fill="white"/>
<path d="M29.0315 105.917L29.6125 102.538L26.3422 103.569L25.359 102.71L29.8957 101.295L31.7645 99.1547L32.6898 99.9628L30.821 102.103L30.0364 106.795L29.0315 105.917Z" fill="white"/>
<path d="M8.92787 70.2798L9.98535 70.0866L10.3839 72.2676L16.1056 71.2221L16.3264 72.4306L10.6047 73.4762L11.0033 75.6572L9.9458 75.8504L8.92787 70.2798Z" fill="white"/>
<path d="M12.7196 62.3546L12.6955 63.4677L15.3632 63.5253L15.3367 64.7535L8.44686 64.6049L8.50628 61.8509C8.54044 60.2675 9.32778 59.3725 10.6712 59.4015C11.7363 59.4245 12.4342 60.0059 12.6518 61.0475L15.4537 59.3319L15.4234 60.7329L12.7196 62.3546ZM9.5289 63.3994L11.64 63.4449L11.6715 61.9864C11.6903 61.1131 11.3264 60.6253 10.6451 60.6106C9.95421 60.5957 9.57942 61.058 9.56038 61.9408L9.5289 63.3994Z" fill="white"/>
<path d="M9.45249 52.4563L12.7103 51.3868L10.2679 48.9802L10.566 47.7094L13.9417 51.0546L16.7076 51.7034L16.427 52.8995L13.6611 52.2507L9.14781 53.7552L9.45249 52.4563Z" fill="white"/>
<path d="M22.6934 37.3812L21.1567 39.8503L15.3059 36.2089L16.7513 33.8865C17.5273 32.6397 18.4861 32.2981 19.4884 32.9219C20.0995 33.3023 20.3601 33.8827 20.2341 34.5392C20.8385 34.0222 21.6015 33.977 22.2859 34.403C23.2964 35.0319 23.4491 36.167 22.6934 37.3812ZM16.8098 35.7543L18.3499 36.7128L19.1107 35.4905C19.5316 34.8142 19.494 34.2933 18.9806 33.9738C18.4836 33.6644 17.9966 33.8475 17.5706 34.532L16.8098 35.7543ZM20.1074 35.8508L19.23 37.2606L20.9005 38.3002L21.7779 36.8905C22.1684 36.2631 22.094 35.6741 21.5725 35.3495C21.0591 35.03 20.4979 35.2234 20.1074 35.8508Z" fill="white"/>
<path d="M21.7903 26.9858L22.6063 26.0673L27.7582 30.6445L26.9422 31.5629L21.7903 26.9858Z" fill="white"/>
<path d="M34.7463 24.1939L31.2904 27.0333L26.9156 21.7085L27.8649 20.9286L31.5573 25.4227L34.0639 23.3633L34.7463 24.1939Z" fill="white"/>
<path d="M42.2644 19.5832L38.3501 21.7473L35.0157 15.7163L36.0909 15.1219L38.9052 20.2121L41.7443 18.6424L42.2644 19.5832Z" fill="white"/>
<path d="M44.7822 11.0323L47.3738 13.2775L48.1833 9.94558L49.4267 9.54829L48.2915 14.1631L49.1562 16.8694L47.986 17.2433L47.1213 14.5371L43.5114 11.4383L44.7822 11.0323Z" fill="white"/>
</svg>
