<svg width="41" height="40" viewBox="0 0 41 40" fill="none" xmlns="http://www.w3.org/2000/svg">
<path d="M15.3151 26.9259L12.2961 29.4638C12.1868 29.5557 12.0535 29.6145 11.9119 29.6332C11.7703 29.652 11.6263 29.6299 11.4968 29.5696C11.3674 29.5093 11.2578 29.4133 11.181 29.2928C11.1043 29.1724 11.0635 29.0325 11.0635 28.8897V14C11.0635 13.8011 11.1425 13.6103 11.2831 13.4697C11.4238 13.329 11.6146 13.25 11.8135 13.25H28.3135C28.5124 13.25 28.7032 13.329 28.8438 13.4697C28.9845 13.6103 29.0635 13.8011 29.0635 14V26C29.0635 26.1989 28.9845 26.3897 28.8438 26.5303C28.7032 26.671 28.5124 26.75 28.3135 26.75H15.7977C15.6212 26.75 15.4503 26.8123 15.3151 26.9259Z" stroke="#1B1C25" stroke-width="2" stroke-linecap="round" stroke-linejoin="round"/>
<path d="M16.626 20H23.501" stroke="#1B1C25" stroke-width="2" stroke-linecap="round" stroke-linejoin="round"/>
<path d="M20.0635 16.5625V23.4375" stroke="#1B1C25" stroke-width="2" stroke-linecap="round" stroke-linejoin="round"/>
</svg>
