<svg width="40" height="40" viewBox="0 0 40 40" fill="none" xmlns="http://www.w3.org/2000/svg">
<path d="M29 19.9996C29.0002 22.3658 28.0686 24.6368 26.4069 26.3212C24.7451 28.0056 22.4869 28.9678 20.1209 28.9996H20C17.7015 29.0054 15.489 28.1258 13.8219 26.5434C13.7503 26.4757 13.6927 26.3945 13.6525 26.3046C13.6123 26.2146 13.5902 26.1176 13.5874 26.0191C13.5847 25.9206 13.6014 25.8225 13.6365 25.7305C13.6717 25.6384 13.7246 25.5542 13.7923 25.4826C13.8601 25.411 13.9412 25.3535 14.0312 25.3132C14.1211 25.273 14.2181 25.2509 14.3166 25.2482C14.4151 25.2454 14.5132 25.2621 14.6053 25.2973C14.6973 25.3324 14.7815 25.3854 14.8531 25.4531C15.9254 26.4644 17.272 27.1372 18.7245 27.3877C20.177 27.6381 21.6711 27.4551 23.0202 26.8613C24.3692 26.2675 25.5134 25.2894 26.3098 24.0492C27.1062 22.8089 27.5195 21.3614 27.4981 19.8877C27.4766 18.4139 27.0214 16.9791 26.1892 15.7625C25.3571 14.5459 24.1849 13.6015 22.8192 13.0472C21.4534 12.493 19.9546 12.3534 18.51 12.646C17.0654 12.9386 15.739 13.6504 14.6966 14.6925C14.6889 14.7007 14.6808 14.7086 14.6722 14.7159L12.1803 16.9996H14.75C14.9489 16.9996 15.1397 17.0787 15.2803 17.2193C15.421 17.36 15.5 17.5507 15.5 17.7496C15.5 17.9486 15.421 18.1393 15.2803 18.28C15.1397 18.4206 14.9489 18.4996 14.75 18.4996H10.25C10.0511 18.4996 9.86032 18.4206 9.71967 18.28C9.57902 18.1393 9.5 17.9486 9.5 17.7496V13.2496C9.5 13.0507 9.57902 12.86 9.71967 12.7193C9.86032 12.5787 10.0511 12.4996 10.25 12.4996C10.4489 12.4996 10.6397 12.5787 10.7803 12.7193C10.921 12.86 11 13.0507 11 13.2496V16.0434L13.6484 13.6246C14.9084 12.3696 16.512 11.5159 18.2567 11.1714C20.0015 10.827 21.8092 11.0071 23.4516 11.6892C25.0941 12.3712 26.4976 13.5246 27.4851 15.0037C28.4726 16.4827 28.9997 18.2212 29 19.9996Z" fill="#1B1C25"/>
</svg>
