<svg width="127" height="127" viewBox="0 0 127 127" fill="none" xmlns="http://www.w3.org/2000/svg">
<rect width="127" height="127" rx="63.5" fill="#A1AEF2"/>
<path d="M25.1859 51.4802C23.5484 56.5556 22.584 61.4173 22.0649 65.7893C20.7123 77.1812 27.2055 87.2328 37.9265 91.3154C42.5606 93.0801 48.2973 94.9663 55.2685 96.8342C62.449 98.7582 68.4945 100.008 73.4587 100.789C84.4494 102.517 94.4052 96.9864 98.5247 86.6514C100.101 82.6955 101.712 77.9531 103.204 72.3852C107.855 55.0273 104.527 48.0242 103.386 46.1114C101.799 43.7482 95.2798 36.3716 73.0644 30.419C64.8131 28.2081 58.1429 26.9555 52.8843 26.318C42.6927 25.0824 33.7887 30.6205 29.576 39.9826C28.1169 43.2255 26.6145 47.0521 25.1859 51.4802Z" fill="#1B1C25"/>
<path d="M44.8992 56.7624C43.3938 61.8732 42.2685 66.6917 41.4391 70.9805C39.2778 82.1558 41.4012 91.0365 46.502 93.6131C48.7068 94.7269 51.4742 95.8175 54.8912 96.7331C58.4108 97.6761 61.4213 98.1125 63.9246 98.2339C69.4668 98.5029 75.3918 91.8917 78.869 81.3846C80.1999 77.3629 81.649 72.5772 83.141 67.0092C87.792 49.6513 86.9396 43.3117 86.5851 41.6096C86.0541 39.5294 83.5763 33.2357 72.6871 30.318C68.6426 29.2343 65.305 28.8746 62.6291 28.9291C57.443 29.0347 52.0686 35.5186 48.6665 45.098C47.4881 48.416 46.2127 52.3035 44.8992 56.7624Z" fill="#050615"/>
<path d="M49.2958 76.3146L48.5552 74.2242C49.4955 74.6864 53.2077 76.1015 60.5332 78.0644C67.8587 80.0272 71.1926 80.5001 71.9439 80.4912L70.478 81.9904C69.704 81.6428 66.5894 80.528 60.323 78.8489C54.0566 77.1698 50.3605 76.4598 49.2958 76.3146Z" fill="#B2FBFF"/>
<path d="M47.7103 48.6934L51.0215 52.0047L49.8095 56.528L45.2862 57.74L41.9749 54.4287L43.187 49.9054L47.7103 48.6934Z" fill="#B2FBFF"/>
<path d="M85.4412 58.8033L88.7525 62.1146L87.5405 66.6379L83.0172 67.8499L79.7059 64.5386L80.9179 60.0153L85.4412 58.8033Z" fill="#B2FBFF"/>
<path fill-rule="evenodd" clip-rule="evenodd" d="M41.9337 32.991C40.1519 34.8437 35.628 41.5152 31.7501 53.5338C27.8814 65.5237 28.5382 76.072 29.3548 79.9025C30.3234 80.7933 32.8095 82.4101 37.1835 84.3795C41.6295 86.3814 48.0102 88.7408 56.6938 91.0675C65.3774 93.3943 72.0644 94.5364 76.8926 95.0196C81.6442 95.4951 84.5782 95.3305 85.8428 95.0387C87.7755 92.9205 92.5607 85.1866 96.4033 70.8457C98.3393 63.6207 99.0716 58.3172 99.203 54.6275C99.2687 52.7825 99.1841 51.3438 99.0256 50.2717C98.8671 49.1989 98.6372 48.5105 98.4227 48.1483C98.1124 47.6888 97.4351 47.016 96.2884 46.1839C95.142 45.352 93.5394 44.3703 91.3963 43.2931C87.1103 41.1386 80.6713 38.6062 71.4153 36.1261C62.1594 33.6459 55.2984 32.6146 50.4862 32.3313C48.08 32.1896 46.1885 32.2351 44.7674 32.3791C43.3745 32.5203 42.4486 32.7548 41.9337 32.991ZM50.5131 31.8752C55.3628 32.1608 62.255 33.1986 71.5336 35.6848C80.8121 38.1709 87.2815 40.7133 91.6015 42.8849C93.7614 43.9706 95.3861 44.9647 96.5568 45.8141C97.723 46.6604 98.452 47.3726 98.8054 47.8985L98.8088 47.9036L98.8119 47.9089C99.0726 48.3457 99.3151 49.1051 99.4776 50.2049C99.641 51.3104 99.7261 52.7777 99.6596 54.6438C99.5267 58.376 98.7871 63.7144 96.8446 70.9639C92.9616 85.4556 88.1043 93.2794 86.1308 95.4003L86.0843 95.4503L86.0181 95.4665C84.7129 95.7874 81.6954 95.9593 76.8471 95.4742C71.9906 94.9882 65.279 93.8409 56.5756 91.5088C47.8721 89.1767 41.4677 86.8096 36.996 84.7961C32.5315 82.7859 29.9774 81.1211 28.9896 80.1866L28.9384 80.1382L28.9234 80.0694C28.0833 76.2212 27.3976 65.5353 31.3153 53.3935C35.2263 41.2724 39.8067 34.5215 41.6351 32.6426L41.6636 32.6133L41.7004 32.5957C42.278 32.3202 43.2762 32.0711 44.7213 31.9246C46.1717 31.7776 48.0883 31.7324 50.5131 31.8752Z" fill="white"/>
<path d="M44.726 116.489L45.0465 115.463L47.1628 116.124L48.8969 110.572L50.0696 110.938L48.3355 116.49L50.4518 117.151L50.1313 118.177L44.726 116.489Z" fill="white"/>
<path d="M39.4712 109.447L40.4456 109.986L41.7366 107.651L42.8118 108.245L39.4774 114.277L37.0666 112.944C35.6806 112.177 35.2542 111.064 35.9044 109.888C36.4198 108.956 37.2591 108.608 38.2824 108.9L38.0659 105.622L39.2923 106.3L39.4712 109.447ZM38.913 112.758L39.9347 110.91L38.6579 110.204C37.8936 109.782 37.2925 109.877 36.9627 110.473C36.6284 111.078 36.8635 111.625 37.6363 112.052L38.913 112.758Z" fill="white"/>
<path d="M29.1891 107.739L29.7566 104.357L26.4905 105.401L25.5039 104.546L30.0349 103.113L31.8951 100.965L32.8237 101.77L30.9634 103.917L30.1975 108.613L29.1891 107.739Z" fill="white"/>
<path d="M21.9971 89.0074L23.4688 91.5157L17.525 95.0032L16.1407 92.6439C15.3975 91.3773 15.5407 90.3696 16.559 89.7722C17.1798 89.4079 17.8149 89.447 18.3375 89.8637C18.1608 89.0883 18.4754 88.3917 19.1708 87.9837C20.1973 87.3814 21.2734 87.7739 21.9971 89.0074ZM17.8216 93.4604L19.3862 92.5424L18.6576 91.3006C18.2545 90.6135 17.7758 90.4047 17.2543 90.7107C16.7493 91.007 16.685 91.5232 17.093 92.2186L17.8216 93.4604ZM19.44 90.5856L20.2803 92.0178L21.9773 91.0221L21.137 89.5899C20.763 88.9525 20.207 88.7445 19.6772 89.0554C19.1557 89.3614 19.066 89.9482 19.44 90.5856Z" fill="white"/>
<path d="M12.3726 84.9752L11.9387 83.8258L18.3861 81.3921L18.82 82.5415L12.3726 84.9752Z" fill="white"/>
<path d="M15.9238 72.2064L16.8313 76.5861L10.0832 77.9843L9.83391 76.7812L15.5294 75.6012L14.8712 72.4245L15.9238 72.2064Z" fill="white"/>
<path d="M15.3361 63.4066L15.4326 67.8783L8.54272 68.027L8.51622 66.7987L14.3313 66.6732L14.2613 63.4298L15.3361 63.4066Z" fill="white"/>
<path d="M8.93582 57.2018L12.1284 55.951L9.5547 53.6854L9.78095 52.3998L13.3392 55.5501L16.1372 56.0425L15.9243 57.2525L13.1262 56.7601L8.70458 58.5157L8.93582 57.2018Z" fill="white"/>
<path d="M29.0366 21.5628L29.749 22.3678L28.0885 23.8371L31.943 28.193L31.0229 29.0072L27.1685 24.6513L25.508 26.1205L24.7957 25.3155L29.0366 21.5628Z" fill="white"/>
<path d="M37.7806 20.7081L36.8155 21.2633L38.1462 23.5761L37.0813 24.1888L33.6446 18.2154L36.0323 16.8417C37.405 16.0519 38.5782 16.2628 39.2483 17.4275C39.7796 18.351 39.643 19.249 38.8642 19.9739L41.7818 21.4844L40.5671 22.1833L37.7806 20.7081ZM35.236 18.5179L36.289 20.3482L37.5536 19.6206C38.3106 19.1851 38.5399 18.6213 38.2001 18.0306C37.8555 17.4316 37.2659 17.35 36.5005 17.7904L35.236 18.5179Z" fill="white"/>
<path d="M44.5616 12.7919L47.162 15.0267L47.9583 11.6916L49.2001 11.2893L48.0833 15.9087L48.9588 18.6115L47.79 18.99L46.9146 16.2873L43.2923 13.203L44.5616 12.7919Z" fill="white"/>
<path d="M64.3128 16.326L61.4048 16.288L61.4947 9.39717L64.23 9.43288C65.6983 9.45204 66.4866 10.0959 66.4712 11.2763C66.4618 11.9961 66.0998 12.5193 65.4729 12.7511C66.2279 13.001 66.6613 13.6305 66.6508 14.4367C66.6352 15.6268 65.7428 16.3446 64.3128 16.326ZM62.6617 10.4491L62.638 12.263L64.0776 12.2818C64.8742 12.2922 65.3004 11.9906 65.3083 11.3859C65.316 10.8005 64.9074 10.4784 64.1013 10.4679L62.6617 10.4491ZM64.2848 13.3212L62.6245 13.2995L62.5988 15.2669L64.2591 15.2886C64.9981 15.2982 65.4637 14.93 65.4717 14.3157C65.4796 13.7111 65.0238 13.3308 64.2848 13.3212Z" fill="white"/>
<path d="M72.742 10.1755L73.9501 10.3987L72.6979 17.1754L71.4898 16.9522L72.742 10.1755Z" fill="white"/>
<path d="M81.8328 19.8195L77.6151 18.3306L79.9092 11.8322L81.0676 12.2411L79.1315 17.7259L82.1906 18.8058L81.8328 19.8195Z" fill="white"/>
<path d="M89.6677 23.8685L85.7909 21.638L89.2276 15.6646L90.2925 16.2773L87.3919 21.3189L90.2038 22.9367L89.6677 23.8685Z" fill="white"/>
<path d="M98.2883 21.6005L97.7074 24.9798L100.978 23.9491L101.961 24.8078L97.4241 26.2234L95.5554 28.3633L94.63 27.5551L96.4988 25.4152L97.2834 20.723L98.2883 21.6005Z" fill="white"/>
<path d="M118.392 57.2381L117.334 57.4314L116.936 55.2503L111.214 56.2959L110.993 55.0873L116.715 54.0418L116.317 51.8607L117.374 51.6675L118.392 57.2381Z" fill="white"/>
<path d="M114.6 65.1634L114.624 64.0502L111.957 63.9927L111.983 62.7644L118.873 62.9131L118.814 65.6671C118.779 67.2504 117.992 68.1454 116.649 68.1165C115.583 68.0935 114.886 67.512 114.668 66.4705L111.866 68.1861L111.896 66.7851L114.6 65.1634ZM117.791 64.1186L115.68 64.073L115.648 65.5316C115.63 66.4048 115.993 66.8927 116.675 66.9074C117.366 66.9223 117.74 66.46 117.759 65.5771L117.791 64.1186Z" fill="white"/>
<path d="M117.868 75.0616L114.61 76.1311L117.052 78.5377L116.754 79.8086L113.378 76.4634L110.612 75.8145L110.893 74.6184L113.659 75.2673L118.172 73.7627L117.868 75.0616Z" fill="white"/>
<path d="M104.626 90.1367L106.163 87.6677L112.014 91.3091L110.568 93.6315C109.793 94.8782 108.834 95.2199 107.831 94.5961C107.22 94.2157 106.96 93.6352 107.086 92.9788C106.481 93.4957 105.718 93.5409 105.034 93.1149C104.023 92.486 103.871 91.3509 104.626 90.1367ZM110.51 91.7637L108.97 90.8051L108.209 92.0274C107.788 92.7038 107.826 93.2246 108.339 93.5441C108.836 93.8535 109.323 93.6705 109.749 92.986L110.51 91.7637ZM107.212 91.6671L108.09 90.2574L106.419 89.2177L105.542 90.6274C105.151 91.2549 105.226 91.8438 105.747 92.1684C106.261 92.4879 106.822 92.2946 107.212 91.6671Z" fill="white"/>
<path d="M105.53 100.532L104.714 101.451L99.5619 96.8735L100.378 95.955L105.53 100.532Z" fill="white"/>
<path d="M92.5735 103.324L96.0294 100.485L100.404 105.809L99.455 106.589L95.7626 102.095L93.2559 104.155L92.5735 103.324Z" fill="white"/>
<path d="M85.0554 107.935L88.9697 105.771L92.3041 111.802L91.2289 112.396L88.4146 107.306L85.5755 108.875L85.0554 107.935Z" fill="white"/>
<path d="M82.5376 116.486L79.9461 114.24L79.1365 117.572L77.8931 117.97L79.0283 113.355L78.1636 110.649L79.3339 110.275L80.1986 112.981L83.8084 116.08L82.5376 116.486Z" fill="white"/>
</svg>
