<svg width="40" height="40" viewBox="0 0 40 40" fill="none" xmlns="http://www.w3.org/2000/svg">
<path d="M28.25 12.5H11.75C11.5511 12.5 11.3603 12.579 11.2197 12.7197C11.079 12.8603 11 13.0511 11 13.25C11 13.4489 11.079 13.6397 11.2197 13.7803C11.3603 13.921 11.5511 14 11.75 14H12.5V27.5C12.5 27.8978 12.658 28.2794 12.9393 28.5607C13.2206 28.842 13.6022 29 14 29H26C26.3978 29 26.7794 28.842 27.0607 28.5607C27.342 28.2794 27.5 27.8978 27.5 27.5V14H28.25C28.4489 14 28.6397 13.921 28.7803 13.7803C28.921 13.6397 29 13.4489 29 13.25C29 13.0511 28.921 12.8603 28.7803 12.7197C28.6397 12.579 28.4489 12.5 28.25 12.5ZM26 27.5H14V14H26V27.5ZM15.5 10.25C15.5 10.0511 15.579 9.86032 15.7197 9.71967C15.8603 9.57902 16.0511 9.5 16.25 9.5H23.75C23.9489 9.5 24.1397 9.57902 24.2803 9.71967C24.421 9.86032 24.5 10.0511 24.5 10.25C24.5 10.4489 24.421 10.6397 24.2803 10.7803C24.1397 10.921 23.9489 11 23.75 11H16.25C16.0511 11 15.8603 10.921 15.7197 10.7803C15.579 10.6397 15.5 10.4489 15.5 10.25Z" fill="#1B1C25"/>
</svg>
