<svg width="127" height="127" viewBox="0 0 127 127" fill="none" xmlns="http://www.w3.org/2000/svg">
<rect width="127" height="127" rx="63.5" fill="#A1AEF2"/>
<path d="M27.9681 82.2539C30.3991 87.0006 33.1549 91.1202 35.8793 94.5787C42.9782 103.591 54.6771 106.107 65.1448 101.413C69.6695 99.3836 75.0597 96.6609 81.3099 93.0524C87.7477 89.3355 92.9061 85.9442 96.9685 82.9861C105.963 76.4371 109.091 65.4862 104.696 55.2653C103.014 51.3531 100.8 46.8606 97.9176 41.8685C88.9325 26.3058 81.6271 23.7073 79.4678 23.1616C76.6744 22.6128 66.8487 22.0066 46.9308 33.5061C39.5329 37.7773 33.9306 41.6082 29.7615 44.8757C21.6812 51.2086 19.3012 61.4207 22.9425 71.0196C24.2037 74.3444 25.8472 78.1126 27.9681 82.2539Z" fill="#1B1C25"/>
<path d="M45.6428 72.0495C48.1922 76.7279 50.8037 80.9308 53.2498 84.5499C59.6238 93.9803 67.4047 98.7584 72.8335 96.9736C75.1801 96.2021 77.9081 95.0164 80.9717 93.2476C84.1273 91.4257 86.5646 89.6055 88.4206 87.9213C92.5297 84.1926 92.0445 75.3282 87.0736 65.4398C85.1709 61.6548 82.8116 57.2462 79.9294 52.2541C70.9443 36.6914 65.8587 32.8114 64.4046 31.8585C62.5582 30.763 56.3557 28.0648 46.5928 33.7015C42.9666 35.795 40.3522 37.9008 38.4986 39.8315C34.9061 43.5733 35.6907 51.9584 40.0587 61.1376C41.5717 64.3171 43.4186 67.9678 45.6428 72.0495Z" fill="#050615"/>
<path d="M62.2982 80.4876L57.0171 78.3405C58.0088 78.0023 65.1923 79.8493 71.7602 76.0573C78.3281 72.2654 80.3079 65.128 80.8328 64.5905L80.4847 69.9876C79.6917 70.2891 77.7846 73.517 72.1663 76.7607C66.548 80.0045 63.1537 79.8373 62.2982 80.4876Z" fill="#B2FBFF"/>
<path d="M41.9247 64.3562L46.6076 64.3562L48.949 68.4116L46.6076 72.4671L41.9247 72.4671L39.5833 68.4116L41.9247 64.3562Z" fill="#B2FBFF"/>
<path d="M77.7796 47.301L80.4363 44.8253L81.5941 46.8306L78.9625 48.3499L74.8824 51.2829L74.3824 50.4169L77.7796 47.301Z" fill="#B2FBFF"/>
<path fill-rule="evenodd" clip-rule="evenodd" d="M26.7368 57.3374C26.7869 59.9074 28.3056 67.8237 34.0619 79.0643C39.8045 90.278 47.7277 97.2723 51.0136 99.4035C52.3285 99.3485 55.2296 98.7337 59.7151 97.0335C64.2745 95.3052 70.4546 92.4617 78.2401 87.9667C86.0256 83.4718 91.5617 79.551 95.3174 76.4786C99.0134 73.4549 100.972 71.2639 101.66 70.1633C101.528 67.299 99.4434 58.4466 92.02 45.5889C88.28 39.1111 85.0478 34.8432 82.5317 32.1412C81.2736 30.7902 80.1964 29.8327 79.3262 29.1866C78.4556 28.5402 77.8062 28.2159 77.3984 28.1114C76.8541 28.0061 75.8995 28.0091 74.5002 28.2316C73.1013 28.454 71.2739 28.8931 68.9968 29.6467C64.4427 31.154 58.099 33.9163 49.8003 38.7076C41.5017 43.4988 35.9209 47.621 32.3179 50.8234C30.5163 52.4246 29.2109 53.7943 28.3079 54.9011C27.4229 55.9858 26.9339 56.8063 26.7368 57.3374ZM32.0144 50.4819C35.6456 47.2545 41.253 43.1148 49.5719 38.3119C57.8908 33.509 64.2631 30.7322 68.8533 29.213C71.1483 28.4535 73 28.0075 74.4285 27.7804C75.8515 27.5542 76.8706 27.5423 77.4924 27.6643L77.4984 27.6655L77.5043 27.667C77.9976 27.7915 78.706 28.1571 79.5986 28.8198C80.4958 29.486 81.5935 30.4634 82.866 31.8299C85.4111 34.5629 88.663 38.8607 92.4156 45.3604C99.9171 58.3534 102.015 67.3202 102.119 70.2154L102.121 70.2836L102.086 70.3419C101.39 71.4917 99.378 73.747 95.6067 76.8322C91.8289 79.9226 86.2719 83.8571 78.4685 88.3624C70.6652 92.8677 64.4628 95.7224 59.8771 97.4607C55.2988 99.1961 52.3156 99.8249 50.9563 99.8626L50.8859 99.8646L50.8266 99.8265C47.5115 97.6995 39.4705 90.6283 33.6552 79.2725C27.8498 67.936 26.315 59.9237 26.2793 57.3022L26.2788 57.2614L26.2924 57.2228C26.506 56.6196 27.0357 55.7377 27.9539 54.6122C28.8756 53.4827 30.1988 52.0955 32.0144 50.4819Z" fill="white"/>
<path d="M116.39 82.693L115.364 82.3725L116.025 80.2561L110.473 78.522L110.839 77.3494L116.391 79.0834L117.052 76.9671L118.078 77.2876L116.39 82.693Z" fill="white"/>
<path d="M109.349 87.9478L109.887 86.9734L107.552 85.6824L108.147 84.6072L114.178 87.9416L112.845 90.3523C112.079 91.7383 110.965 92.1648 109.79 91.5146C108.857 90.9991 108.51 90.1599 108.801 89.1366L105.523 89.3531L106.201 88.1267L109.349 87.9478ZM112.659 88.5059L110.811 87.4842L110.106 88.761C109.683 89.5254 109.778 90.1265 110.375 90.4562C110.979 90.7906 111.526 90.5555 111.953 89.7827L112.659 88.5059Z" fill="white"/>
<path d="M107.64 98.2298L104.259 97.6623L105.302 100.928L104.448 101.915L103.014 97.3841L100.867 95.5238L101.671 94.5953L103.818 96.4555L108.514 97.2214L107.64 98.2298Z" fill="white"/>
<path d="M88.9084 105.422L91.4167 103.95L94.9042 109.894L92.5449 111.278C91.2783 112.022 90.2706 111.878 89.6732 110.86C89.3089 110.239 89.348 109.604 89.7647 109.082C88.9893 109.258 88.2927 108.944 87.8847 108.248C87.2824 107.222 87.6749 106.146 88.9084 105.422ZM93.3614 109.597L92.4434 108.033L91.2016 108.761C90.5145 109.165 90.3057 109.643 90.6117 110.165C90.908 110.67 91.4242 110.734 92.1196 110.326L93.3614 109.597ZM90.4866 107.979L91.9188 107.139L90.9231 105.442L89.4909 106.282C88.8535 106.656 88.6455 107.212 88.9564 107.742C89.2624 108.263 89.8492 108.353 90.4866 107.979Z" fill="white"/>
<path d="M84.8762 115.046L83.7268 115.48L81.2931 109.033L82.4425 108.599L84.8762 115.046Z" fill="white"/>
<path d="M72.1074 111.495L76.4871 110.588L77.8853 117.336L76.6822 117.585L75.5022 111.89L72.3255 112.548L72.1074 111.495Z" fill="white"/>
<path d="M63.3076 112.083L67.7793 111.986L67.928 118.876L66.6997 118.903L66.5742 113.088L63.3308 113.157L63.3076 112.083Z" fill="white"/>
<path d="M57.1028 118.483L55.852 115.29L53.5864 117.864L52.3008 117.638L55.4511 114.08L55.9435 111.282L57.1535 111.494L56.6611 114.292L58.4167 118.714L57.1028 118.483Z" fill="white"/>
<path d="M21.4639 98.3826L22.269 97.6702L23.7382 99.3307L28.0942 95.4762L28.9083 96.3963L24.5524 100.251L26.0217 101.911L25.2166 102.624L21.4639 98.3826Z" fill="white"/>
<path d="M20.6091 89.6385L21.1643 90.6035L23.4771 89.2729L24.0898 90.3378L18.1164 93.7745L16.7427 91.3868C15.9529 90.0141 16.1638 88.8408 17.3285 88.1707C18.252 87.6394 19.15 87.7761 19.8749 88.5549L21.3854 85.6373L22.0843 86.8519L20.6091 89.6385ZM18.4189 92.1831L20.2492 91.13L19.5216 89.8655C19.0861 89.1084 18.5223 88.8791 17.9316 89.219C17.3326 89.5636 17.251 90.1531 17.6914 90.9185L18.4189 92.1831Z" fill="white"/>
<path d="M12.693 82.8576L14.9278 80.2572L11.5927 79.4609L11.1905 78.2191L15.8098 79.3359L18.5126 78.4604L18.8912 79.6292L16.1884 80.5046L13.1041 84.1268L12.693 82.8576Z" fill="white"/>
<path d="M16.2271 63.1064L16.1891 66.0144L9.2983 65.9245L9.334 63.1892C9.35317 61.7209 9.99699 60.9325 11.1775 60.948C11.8972 60.9574 12.4205 61.3193 12.6523 61.9463C12.9021 61.1912 13.5317 60.7579 14.3378 60.7684C15.5279 60.784 16.2458 61.6764 16.2271 63.1064ZM10.3502 64.7575L12.1641 64.7812L12.1829 63.3416C12.1933 62.545 11.8917 62.1187 11.2871 62.1109C10.7016 62.1032 10.3795 62.5118 10.369 63.3179L10.3502 64.7575ZM13.2223 63.1344L13.2006 64.7947L15.1681 64.8204L15.1897 63.1601C15.1994 62.4211 14.8311 61.9555 14.2169 61.9475C13.6122 61.9396 13.2319 62.3954 13.2223 63.1344Z" fill="white"/>
<path d="M10.0766 54.6769L10.2998 53.4688L17.0765 54.7211L16.8533 55.9292L10.0766 54.6769Z" fill="white"/>
<path d="M19.7205 45.5863L18.2316 49.8039L11.7332 47.5099L12.1421 46.3514L17.6269 48.2876L18.7068 45.2285L19.7205 45.5863Z" fill="white"/>
<path d="M23.7696 37.7515L21.5391 41.6283L15.5657 38.1916L16.1784 37.1267L21.22 40.0273L22.8378 37.2154L23.7696 37.7515Z" fill="white"/>
<path d="M21.5016 29.1305L24.8809 29.7115L23.8503 26.4412L24.7089 25.458L26.1245 29.9947L28.2644 31.8635L27.4563 32.7888L25.3164 30.92L20.6241 30.1354L21.5016 29.1305Z" fill="white"/>
<path d="M57.1391 9.027L57.3324 10.0845L55.1513 10.483L56.1969 16.2047L54.9883 16.4256L53.9428 10.7039L51.7617 11.1024L51.5685 10.0449L57.1391 9.027Z" fill="white"/>
<path d="M65.0644 12.8187L63.9512 12.7947L63.8937 15.4623L62.6654 15.4358L62.8141 8.54598L65.5681 8.6054C67.1514 8.63956 68.0464 9.4269 68.0175 10.7703C67.9945 11.8355 67.413 12.5333 66.3715 12.7509L68.0871 15.5528L66.6861 15.5226L65.0644 12.8187ZM64.0196 9.62803L63.974 11.7391L65.4326 11.7706C66.3058 11.7894 66.7937 11.4255 66.8084 10.7442C66.8233 10.0533 66.361 9.67855 65.4781 9.6595L64.0196 9.62803Z" fill="white"/>
<path d="M74.9628 9.55149L76.0324 12.8093L78.439 10.3669L79.7098 10.665L76.3646 14.0407L75.7158 16.8066L74.5197 16.526L75.1685 13.7601L73.664 9.24681L74.9628 9.55149Z" fill="white"/>
<path d="M90.0381 22.7926L87.569 21.2559L91.2105 15.4051L93.5329 16.8505C94.7796 17.6264 95.1212 18.5852 94.4974 19.5875C94.1171 20.1986 93.5366 20.4592 92.8801 20.3332C93.3971 20.9376 93.4423 21.7006 93.0163 22.3851C92.3874 23.3955 91.2523 23.5482 90.0381 22.7926ZM91.665 16.9089L90.7065 18.449L91.9288 19.2098C92.6051 19.6307 93.126 19.5931 93.4455 19.0798C93.7549 18.5827 93.5718 18.0957 92.8873 17.6697L91.665 16.9089ZM91.5685 20.2065L90.1587 19.3291L89.1191 20.9996L90.5288 21.877C91.1563 22.2675 91.7452 22.1931 92.0698 21.6716C92.3893 21.1583 92.1959 20.597 91.5685 20.2065Z" fill="white"/>
<path d="M100.433 21.8893L101.352 22.7053L96.7745 27.8572L95.856 27.0412L100.433 21.8893Z" fill="white"/>
<path d="M103.225 34.8454L100.386 31.3896L105.71 27.0147L106.49 27.964L101.996 31.6564L104.056 34.163L103.225 34.8454Z" fill="white"/>
<path d="M107.836 42.3634L105.672 38.4491L111.703 35.1147L112.297 36.1899L107.207 39.0042L108.777 41.8433L107.836 42.3634Z" fill="white"/>
<path d="M116.387 44.8815L114.142 47.473L117.473 48.2826L117.871 49.526L113.256 48.3908L110.55 49.2555L110.176 48.0852L112.882 47.2205L115.981 43.6106L116.387 44.8815Z" fill="white"/>
</svg>
